# AST/ASF file generated using VICON BodyLanguage
# -----------------------------------------------
:version 1.10
:name VICON
:units
  mass 1.0
  length 0.45
  angle deg
:documentation
   .ast/.asf automatically generated from VICON data using
   VICON BodyBuilder and BodyLanguage model FoxedUp or BRILLIANT.MOD
:root
   order TX TY TZ RX RY RZ
   axis XYZ
   position 0 0 0  
   orientation 0 0 0 
:bonedata
  begin
     id 1 
     name lhipjoint
     direction 0.575328 -0.747301 0.332475 
     length 2.40933 
     axis 0 0 0  XYZ
  end
  begin
     id 2 
     name lfemur
     direction 0.34202 -0.939693 0  
     length 7.31453  
     axis 0 0 20  XYZ
    dof rx ry rz
    limits (-160.0 20.0)
           (-70.0 70.0)
           (-60.0 70.0)
  end
  begin
     id 3 
     name ltibia
     direction 0.34202 -0.939693 0   
     length 7.82185   
     axis 0 0 20   XYZ
    dof rx
    limits (-10.0 170.0)
  end
  begin
     id 4 
     name lfoot
     direction 0.0795993 -0.218697 0.972541   
     length 2.19173   
     axis -90 7.62852e-016 20   XYZ
    dof rx rz
    limits (-45.0 90.0)
           (-70.0 20.0)
  end
  begin
     id 5 
     name ltoes
     direction 1.53537e-011 -4.21894e-011 1   
     length 1.10023   
     axis -90 7.62852e-016 20   XYZ
    dof rx
    limits (-90.0 20.0)
  end
  begin
     id 6 
     name rhipjoint
     direction -0.513884 -0.783789 0.348708   
     length 2.29716  
     axis 0 0 0  XYZ 
  end
  begin
     id 7 
     name rfemur
     direction -0.34202 -0.939693 0   
     length 7.59573   
     axis 0 0 -20   XYZ
    dof rx ry rz
    limits (-160.0 20.0)
           (-70.0 70.0)
           (-70.0 60.0)
  end
  begin
     id 8 
     name rtibia
     direction -0.34202 -0.939693 0   
     length 7.66402   
     axis 0 0 -20   XYZ
    dof rx
    limits (-10.0 170.0)
 end
 begin
     id 9 
     name rfoot
     direction -0.137793 -0.378584 0.915253   
     length 2.27056  
     axis -90 -7.62852e-016 -20   XYZ
    dof rx rz
    limits (-45.0 90.0)
           (-20.0 70.0)
  end
  begin
     id 10 
     name rtoes
     direction -1.53493e-011 -4.22159e-011 1   
     length 1.11766   
     axis -90 -7.62852e-016 -20   XYZ
    dof rx
    limits (-90.0 20.0)
  end
  begin
     id 11 
     name lowerback
     direction -0.00732775 0.998356 -0.05685   
     length 2.16513   
     axis 0 0 0   XYZ
    dof rx ry rz
    limits (-20.0 45.0)
           (-30.0 30.0)
           (-30.0 30.0)
  end
  begin
     id 12 
     name upperback
     direction 0.0218081 0.999627 -0.0164647   
     length 2.16755   
     axis 0 0 0   XYZ
    dof rx ry rz
    limits (-20.0 45.0)
           (-30.0 30.0)
           (-30.0 30.0)
  end
  begin
     id 13 
     name thorax
     direction 0.02365 0.999661 0.0108914   
     length 2.16932   
     axis 0 0 0   XYZ
    dof rx ry rz
    limits (-20.0 45.0)
           (-30.0 30.0)
           (-30.0 30.0)
  end
  begin
     id 14 
     name lowerneck
     direction -0.0523929 0.978385 0.200044   
     length 1.63877   
     axis 0 0 0   XYZ
    dof rx ry rz
    limits (-20.0 45.0)
           (-30.0 30.0)
           (-30.0 30.0)
  end
  begin
     id 15 
     name upperneck
     direction 0.0448674 0.981321 -0.187074   
     length 1.69014   
     axis 0 0 0   XYZ
    dof rx ry rz
    limits (-20.0 45.0)
           (-30.0 30.0)
           (-30.0 30.0)
  end
  begin
     id 16
     name head
     direction 0.0199089 0.996118 -0.0857429  
     length 1.70094  
     axis 0 0 0   XYZ
    dof rx ry rz
    limits (-20.0 45.0)
           (-30.0 30.0)
           (-30.0 30.0)
  end
  begin
     id 17 
     name lclavicle
     direction 0.940366 0.30191 -0.156722  
     length 3.37521  
     axis 0 0 0   XYZ
    dof ry rz
    limits (-20.0 10.0)
           (0.0 20.0)
  end
  begin
     id 18 
     name lhumerus
     direction 1 -4.4897e-011 -1.7911e-027   
     length 5.25287   
     axis 180 -30 -90   XYZ
    dof rx ry rz
    limits (-60.0 90.0)
           (-90.0 90.0)
           (-90.0 90.0)
  end
  begin
     id 19
     name lradius
     direction 1 -4.48951e-011 1.04424e-027   
     length 3.51014   
     axis 180 -30 -90   XYZ
    dof rx
    limits (-10.0 170.0)
  end
  begin
     id 20
     name lwrist
     direction 1 -4.48997e-011 -9.5942e-028   
     length 1.75507   
     axis 8.48502e-016 90 90   XYZ
    dof ry
    limits (-180.0 0.0)
 end
  begin
     id 21 
     name lhand
     direction 1 -4.48831e-011 -1.90777e-027   
     length 0.706179   
     axis 1.22306e-015 90 90   XYZ
    dof rx rz
    limits (-90.0 90.0)
           (-45.0 45.0)
  end
  begin
     id 22 
     name lfingers
     direction 1 -4.49108e-011 -3.85244e-027   
     length 0.569339   
     axis 2.44611e-015 90 90   XYZ
    dof rx
    limits (0.0 90.0)
  end
  begin
     id 23
     name lthumb
     direction 0.707107 -6.34953e-011 0.707107   
     length 0.817461   
     axis -90 45 -1.62303e-014   XYZ
    dof rx rz
    limits (-45.0 45.0)
           (-45.0 45.0)
  end
  begin
     id 24 
     name rclavicle
     direction -0.905329 0.382405 -0.184787   
     length 3.30787  
     axis 0 0 0   XYZ 
    dof ry rz
    limits (-10.0 20.0)
           (-20.0 0.0)
  end
  begin
     id 25 
     name rhumerus
     direction -1 -4.48953e-011 -9.15316e-029  
     length 5.28721   
     axis 180 30 90   XYZ
    dof rx ry rz
    limits (-90.0 60.0)
           (-90.0 90.0)
           (-90.0 90.0)
  end
  begin
     id 26 
     name rradius
     direction -1 -4.48987e-011 9.37824e-028   
     length 3.50544   
     axis 180 30 90   XYZ
    dof rx
    limits (-10.0 170.0)
  end
  begin
     id 27 
     name rwrist
     direction -1 -4.48967e-011 -9.58414e-028   
     length 1.75272   
     axis 8.48502e-016 -90 -90   XYZ
    dof ry
    limits (-180.0 0.0)
  end
  begin
     id 28
     name rhand
     direction -1 -4.48904e-011 -1.91266e-027   
     length 0.884996   
     axis 1.22306e-015 -90 -90   XYZ
    dof rx rz
    limits (-90.0 90.0)
           (-45.0 45.0)
  end
  begin
     id 29
     name rfingers
     direction -1 -4.4909e-011 -3.85015e-027   
     length 0.713507   
     axis 2.44611e-015 -90 -90   XYZ
    dof rx
    limits (0.0 90.0)
  end
  begin
     id 30
     name rthumb
     direction -0.707107 -6.34853e-011 0.707107   
     length 1.02446   
     axis -90 -45 1.62303e-014   XYZ
    dof rx rz
    limits (-45.0 45.0)
           (-45.0 45.0)
  end
:hierarchy
  begin
    root lhipjoint rhipjoint lowerback
    lhipjoint lfemur
    lfemur ltibia
    ltibia lfoot
    lfoot ltoes
    rhipjoint rfemur
    rfemur rtibia
    rtibia rfoot
    rfoot rtoes
    lowerback upperback
    upperback thorax
    thorax lowerneck lclavicle rclavicle
    lowerneck upperneck
    upperneck head
    lclavicle lhumerus
    lhumerus lradius
    lradius lwrist
    lwrist lhand lthumb
    lhand lfingers
    rclavicle rhumerus
    rhumerus rradius
    rradius rwrist
    rwrist rhand rthumb
    rhand rfingers
  end

#!OML:ASF F:\twosubjects\two\Thursday\Session 1\justin.ASF
:FULLY-SPECIFIED
:DEGREES
49
root 8.10765 14.3753 -18.7058 -6.83321 -77.7781 3.05145
lowerback 12.8852 2.53231 -2.07629
upperback -2.11829 2.99322 -0.489703
thorax -9.61204 1.53483 0.0165546
lowerneck -18.1354 3.3085 2.11685
upperneck 21.8494 2.27334 6.17646
head 9.91706 1.90007 2.12022
rclavicle -1.30949e-014 -3.57812e-015
rhumerus 33.7772 -46.4542 -0.741396
rradius 81.9921
rwrist -12.4946
rhand -33.2597 35.1804
rfingers 7.12502
rthumb -6.46496 5.29902
lclavicle -1.30949e-014 -3.57812e-015
lhumerus 60.7902 39.8559 20.2603
lradius 83.4834
lwrist -12.1178
lhand -26.1092 40.5071
lfingers 7.12502
lthumb 0.440294 70.4864
rfemur -13.3206 -0.630862 -6.15137
rtibia 67.5425
rfoot -29.4644 -6.97888
rtoes -36.505
lfemur -15.0298 -0.556544 10.5808
ltibia 54.825
lfoot -30.7614 -7.68946
ltoes -39.3582
50
root 8.08052 14.4992 -18.6933 -5.8634 -77.8334 2.29165
lowerback 12.2282 2.33126 -2.0171
upperback -2.09804 2.77488 -0.25929
thorax -9.2126 1.43586 0.304306
lowerneck -18.1815 3.42137 1.35992
upperneck 21.9369 2.50911 6.72918
head 9.92617 2.01245 2.47489
rclavicle -4.5472e-015 -5.36719e-015
rhumerus 34.2037 -46.5154 -2.14906
rradius 79.7912
rwrist -13.0748
rhand -32.2129 33.2508
rfingers 7.12502
rthumb -5.4543 3.34099
lclavicle -4.5472e-015 -5.36719e-015
lhumerus 58.3621 39.7739 19.4003
lradius 81.9767
lwrist -8.74783
lhand -23.7945 40.0484
lfingers 7.12502
lthumb 2.67579 70.0114
rfemur -12.6914 -0.593375 -5.71218
rtibia 65.9038
rfoot -28.8172 -7.04442
rtoes -35.8683
lfemur -14.3368 -1.03438 10.3409
ltibia 53.3524
lfoot -29.6916 -7.37472
ltoes -38.9961
51
root 8.05059 14.6536 -18.6824 -4.54867 -78.0623 1.30277
lowerback 11.4447 1.87894 -2.13339
upperback -2.08997 2.22812 0.351478
thorax -8.76621 1.19722 1.15669
lowerneck -18.2984 3.8596 0.0807063
upperneck 22.1644 3.41066 7.07504
head 9.95365 2.36908 2.93864
rclavicle -3.44781e-014 3.926e-015
rhumerus 36.1201 -46.5106 -4.74154
rradius 77.6879
rwrist -13.0591
rhand -31.1314 31.549
rfingers 7.12502
rthumb -4.40999 1.61495
lclavicle -3.44781e-014 3.926e-015
lhumerus 54.1133 40.158 17.3239
lradius 80.4328
lwrist -5.84362
lhand -21.1196 39.5457
lfingers 7.12502
lthumb 5.25884 69.4605
rfemur -12.2025 -0.441385 -5.12005
rtibia 64.0428
rfoot -27.9562 -7.24171
rtoes -36.0803
lfemur -13.758 -1.30908 10.1523
ltibia 51.8176
lfoot -28.2605 -7.36822
ltoes -38.3368
52
root 8.01458 14.835 -18.6725 -2.88732 -78.3443 -0.0798823
lowerback 10.7296 1.23408 -2.42544
upperback -2.02394 1.41039 1.1943
thorax -8.27951 0.835101 2.38709
lowerneck -18.7778 4.51978 -1.1366
upperneck 22.558 4.7245 6.97083
head 10.0841 2.87145 3.30624
rclavicle 7.67806e-015 -1.33186e-014
rhumerus 38.834 -46.4377 -7.95764
rradius 75.6977
rwrist -12.8733
rhand -30.238 29.678
rfingers 7.12502
rthumb -3.54732 -0.272209
lclavicle 7.67806e-015 -1.33186e-014
lhumerus 48.5525 40.6245 14.2679
lradius 78.8354
lwrist -3.83692
lhand -19.2368 39.2552
lfingers 7.12502
lthumb 7.07662 69.1169
rfemur -11.6089 -0.141015 -4.37878
rtibia 62.035
rfoot -26.7431 -7.46668
rtoes -36.5821
lfemur -13.1419 -1.63843 10.0571
ltibia 50.2845
lfoot -26.486 -7.55602
ltoes -37.6395
53
root 7.98311 15.0301 -18.6658 -1.24404 -78.6208 -1.34345
lowerback 10.0138 0.675757 -2.70259
upperback -1.98116 0.697179 1.95194
thorax -7.79231 0.512316 3.47985
lowerneck -19.1086 4.9846 -2.18638
upperneck 22.6012 5.82821 6.54696
head 10.0769 3.24713 3.48641
rclavicle 1.17904e-014 -2.38542e-015
rhumerus 40.5091 -46.2716 -10.3561
rradius 74.0288
rwrist -12.7987
rhand -29.8768 27.6512
rfingers 7.12502
rthumb -3.1985 -2.30452
lclavicle 1.17904e-014 -2.38542e-015
lhumerus 43.2235 40.8018 11.5055
lradius 77.1809
lwrist -2.31214
lhand -18.7355 38.6862
lfingers 7.12502
lthumb 7.56045 68.5311
rfemur -11.1851 0.114967 -3.65553
rtibia 60.0271
rfoot -24.9111 -7.8718
rtoes -36.7464
lfemur -12.5587 -2.20501 9.92286
ltibia 48.749
lfoot -24.422 -7.75641
ltoes -37.023
54
root 7.95679 15.2403 -18.6558 -1.16049 -78.9374 -0.876595
lowerback 9.19526 0.476116 -2.89238
upperback -2.04457 0.441849 2.22782
thorax -7.37364 0.395368 3.92059
lowerneck -19.2678 5.08894 -2.76683
upperneck 22.5441 6.27008 6.15633
head 10.0533 3.35755 3.50419
rclavicle 8.87077e-015 1.82882e-014
rhumerus 39.711 -46.1722 -10.7556
rradius 72.5869
rwrist -13.0164
rhand -29.5259 25.8662
rfingers 7.12502
rthumb -2.85963 -4.09439
lclavicle 8.87077e-015 1.82882e-014
lhumerus 39.4831 40.4295 10.0835
lradius 75.5851
lwrist -1.03451
lhand -19.2351 37.9347
lfingers 7.12502
lthumb 7.0782 67.7963
rfemur -11.0014 0.440117 -3.33887
rtibia 58.0624
rfoot -22.6862 -8.2202
rtoes -36.8477
lfemur -12.0547 -2.63769 9.30302
ltibia 47.2073
lfoot -22.3792 -6.84459
ltoes -39.0555
55
root 7.92936 15.4671 -18.6393 -2.00032 -79.2158 0.379026
lowerback 8.44522 0.424393 -3.06829
upperback -2.04866 0.373071 2.29705
thorax -6.94324 0.361783 4.09996
lowerneck -19.9646 5.23167 -3.38612
upperneck 23.1099 6.56315 6.57232
head 10.3278 3.4869 3.84369
rclavicle -1.25234e-014 2.22639e-014
rhumerus 37.7804 -46.0894 -10.1217
rradius 71.1554
rwrist -13.4289
rhand -29.2293 24.8734
rfingers 7.12502
rthumb -2.57317 -5.09087
lclavicle -1.25234e-014 2.22639e-014
lhumerus 36.4278 39.8704 9.33476
lradius 74.2146
lwrist 0.164353
lhand -18.912 38.7762
lfingers 7.12502
lthumb 7.39008 68.6272
rfemur -10.6864 0.845453 -3.20374
rtibia 56.1168
rfoot -20.2061 -8.43805
rtoes -37.5196
lfemur -11.4401 -3.15857 8.4343
ltibia 45.6082
lfoot -19.9714 -5.91226
ltoes -40.9175
56
root 7.90177 15.7099 -18.6228 -1.65059 -79.5066 0.263807
lowerback 7.85689 0.397246 -3.04332
upperback -1.98443 0.360247 2.44872
thorax -6.53747 0.347316 4.2441
lowerneck -20.7541 5.40534 -4.35729
upperneck 23.7242 6.85347 7.63067
head 10.592 3.66419 4.48217
rclavicle 2.45996e-015 1.27222e-014
rhumerus 35.2543 -45.7622 -8.88156
rradius 70.0244
rwrist -14.2829
rhand -29.1837 23.9062
rfingers 7.12502
rthumb -2.52912 -6.0586
lclavicle 2.45996e-015 1.27222e-014
lhumerus 33.2284 39.2813 8.66002
lradius 73.1595
lwrist 1.38509
lhand -17.384 40.2492
lfingers 7.12502
lthumb 8.86485 70.043
rfemur -10.3119 1.29842 -2.75776
rtibia 54.1638
rfoot -17.3596 -8.54475
rtoes -38.1458
lfemur -10.7274 -3.88748 7.90257
ltibia 43.9596
lfoot -16.9896 -6.02969
ltoes -40.4558
57
root 7.87638 15.9644 -18.6097 -1.1866 -79.8081 0.205438
lowerback 7.21868 0.530264 -2.96578
upperback -2.04537 0.558652 2.44114
thorax -6.25458 0.436677 4.16346
lowerneck -21.3146 5.38822 -4.83311
upperneck 24.1686 6.78029 8.42251
head 10.8109 3.68601 4.88715
rclavicle 3.94588e-014 2.62396e-014
rhumerus 31.9512 -45.3263 -7.32262
rradius 68.953
rwrist -15.0761
rhand -29.349 22.6094
rfingers 7.12502
rthumb -2.68881 -7.3534
lclavicle 3.94588e-014 2.62396e-014
lhumerus 30.6493 38.4249 8.575
lradius 72.336
lwrist 2.43398
lhand -16.4408 40.9698
lfingers 7.12502
lthumb 9.77491 70.723
rfemur -10.1409 1.65215 -2.35748
rtibia 52.1657
rfoot -14.1345 -8.51298
rtoes -37.586
lfemur -10.2094 -4.63463 7.43346
ltibia 42.3003
lfoot -13.4182 -6.65557
ltoes -39.3747
58
root 7.84869 16.2317 -18.598 -2.45593 -80.055 2.03475
lowerback 6.53624 0.907281 -3.04826
upperback -2.33285 1.04798 2.00081
thorax -6.20631 0.676577 3.6869
lowerneck -21.0299 5.20572 -4.10187
upperneck 24.2401 6.24303 8.43814
head 10.8586 3.50257 4.69351
rclavicle 2.99419e-014 3.97569e-015
rhumerus 27.7657 -44.9199 -5.78517
rradius 67.7258
rwrist -15.3646
rhand -29.3924 21.7772
rfingers 7.12502
rthumb -2.73064 -8.18508
lclavicle 2.99419e-014 3.97569e-015
lhumerus 29.173 36.9354 9.14782
lradius 71.5424
lwrist 3.24675
lhand -16.1289 41.421
lfingers 7.12502
lthumb 10.0758 71.1598
rfemur -10.0173 2.02859 -2.27123
rtibia 50.0756
rfoot -10.4951 -8.73381
rtoes -37.4254
lfemur -9.95802 -5.22971 6.54385
ltibia 40.648
lfoot -9.60299 -6.84352
ltoes -39.7983
59
root 7.81858 16.5102 -18.5861 -2.60067 -80.3434 2.60059
lowerback 5.89804 1.19443 -2.76102
upperback -2.54428 1.44537 1.52957
thorax -6.0763 0.852117 2.98846
lowerneck -20.3311 5.06679 -3.03946
upperneck 23.9151 5.80297 7.97072
head 10.7009 3.33308 4.24258
rclavicle -2.51711e-014 -8.34896e-015
rhumerus 23.8259 -44.5703 -4.8275
rradius 66.6681
rwrist -15.9346
rhand -29.1801 21.3176
rfingers 7.12502
rthumb -2.52568 -8.64722
lclavicle -2.51711e-014 -8.34896e-015
lhumerus 27.363 35.5404 9.36922
lradius 70.931
lwrist 4.10431
lhand -15.7167 41.5257
lfingers 7.12502
lthumb 10.4735 71.2448
rfemur -9.85457 2.59816 -1.81214
rtibia 47.9045
rfoot -6.33936 -9.18849
rtoes -38.335
lfemur -9.73535 -5.384 5.79481
ltibia 39.0183
lfoot -6.07344 -6.8841
ltoes -42.4787
60
root 7.78861 16.7914 -18.5747 -0.502662 -80.6784 0.846361
lowerback 5.13363 0.849416 -2.36441
upperback -2.50664 1.04518 1.88099
thorax -5.56786 0.636872 3.18459
lowerneck -20.1842 5.3481 -3.7442
upperneck 23.8725 6.45925 7.89526
head 10.5827 3.56114 4.40725
rclavicle 3.04389e-014 1.47101e-014
rhumerus 22.9862 -44.0968 -5.92305
rradius 65.8129
rwrist -16.7276
rhand -28.9232 20.6214
rfingers 7.12502
rthumb -2.27755 -9.34621
lclavicle 3.04389e-014 1.47101e-014
lhumerus 22.6832 34.9605 8.22587
lradius 70.5645
lwrist 4.86512
lhand -15.8038 41.6706
lfingers 7.12502
lthumb 10.3895 71.3939
rfemur -9.75016 3.1056 -0.942548
rtibia 45.6764
rfoot -1.91752 -9.68874
rtoes -37.8766
lfemur -9.45176 -5.54586 5.51313
ltibia 37.3668
lfoot -2.25081 -7.34032
ltoes -42.6962
61
root 7.76058 17.067 -18.565 -0.311547 -80.8977 1.02775
lowerback 4.29162 1.28596 -1.99711
upperback -2.44939 1.64531 1.396
thorax -5.04394 0.905003 2.42626
lowerneck -20.0628 4.99834 -3.01877
upperneck 23.6921 5.75487 7.7816
head 10.5791 3.28845 4.14136
rclavicle 3.04389e-014 1.59028e-015
rhumerus 17.626 -43.7915 -3.7731
rradius 65.3807
rwrist -17.5761
rhand -28.641 19.9117
rfingers 7.12502
rthumb -2.00501 -10.0586
lclavicle 3.04389e-014 1.59028e-015
lhumerus 21.8416 33.9523 9.62891
lradius 69.7507
lwrist 4.79102
lhand -16.0924 41.8003
lfingers 7.12502
lthumb 10.1111 71.5374
rfemur -9.62655 3.43067 -0.469665
rtibia 43.45
rfoot 2.20558 -10.3376
rtoes -35.6596
lfemur -9.27285 -6.0979 4.91162
ltibia 35.6688
lfoot 2.33967 -7.79863
ltoes -40.7673
62
root 7.73724 17.3298 -18.5581 -1.44187 -81.0803 2.48062
lowerback 3.61491 1.26779 -2.09581
upperback -2.33641 1.62184 1.30704
thorax -4.5397 0.888418 2.40559
lowerneck -20.0593 5.0043 -3.00025
upperneck 23.5438 5.84153 7.50369
head 10.5293 3.29724 4.04271
rclavicle 6.55989e-015 -8.34896e-015
rhumerus 15.0359 -43.4049 -3.79351
rradius 64.7323
rwrist -18.1105
rhand -28.1857 19.5824
rfingers 7.12502
rthumb -1.56525 -10.3916
lclavicle 6.55989e-015 -8.34896e-015
lhumerus 19.0828 33.3631 10.0101
lradius 68.6985
lwrist 4.4002
lhand -15.5002 41.3341
lfingers 7.12502
lthumb 10.6822 71.0426
rfemur -9.49178 3.76274 -0.179128
rtibia 41.335
rfoot 6.01303 -11.4039
rtoes -31.6983
lfemur -9.19337 -6.66173 4.00218
ltibia 33.9913
lfoot 7.01742 -8.07328
ltoes -38.932
